<?xml version="1.0" encoding="UTF-8"?> <svg xmlns="http://www.w3.org/2000/svg" viewBox="0 0 79.85 27"><defs><style>.cls-1{fill:#006e62;}.cls-2{fill:#3fbfad;}.cls-3{fill:#a5d400;}</style></defs><title>lamar-logo-aacsbAsset 1</title><g id="Layer_2" data-name="Layer 2"><g id="Layer_1-2" data-name="Layer 1"><path class="cls-1" d="M32.51,26.68l1.93-5.13h1.11l1.93,5.13H36.35L36,25.8H33.93l-.31.88ZM35,22.85l-.71,2H35.7l-.71-2Z"></path><path class="cls-1" d="M40.25,21.44a2.37,2.37,0,0,1,2.49,2H41.61a1.3,1.3,0,0,0-1.36-1c-.94,0-1.47.65-1.47,1.66s.53,1.66,1.47,1.66a1.3,1.3,0,0,0,1.36-1h1.13a2.37,2.37,0,0,1-2.49,2,2.67,2.67,0,0,1,0-5.33Z"></path><path class="cls-1" d="M45.94,21.44a2.37,2.37,0,0,1,2.49,2H47.3a1.3,1.3,0,0,0-1.36-1c-.94,0-1.47.65-1.47,1.66s.53,1.66,1.47,1.66a1.3,1.3,0,0,0,1.36-1h1.13a2.37,2.37,0,0,1-2.49,2,2.67,2.67,0,0,1,0-5.33Z"></path><path class="cls-1" d="M52.08,26.68l-1-1.94h-1v1.94h-1V21.55h2.33a1.53,1.53,0,0,1,1.7,1.34,2.17,2.17,0,0,1,0,.26,1.48,1.48,0,0,1-.91,1.47l1.12,2.06Zm-.7-4.16H50.11v1.25h1.27a.59.59,0,0,0,.66-.49v-.12a.59.59,0,0,0-.53-.64Z"></path><path class="cls-1" d="M57.75,26.68H54.06V21.55h3.69v1H55.11v1.08h2.53v1H55.11v1.15h2.64Z"></path><path class="cls-1" d="M58.79,26.68V21.55h1.84A2.57,2.57,0,1,1,61,26.68a1.71,1.71,0,0,1-.32,0Zm1.81-4.16h-.76v3.19h.76a1.46,1.46,0,0,0,1.62-1.26,1.93,1.93,0,0,0,0-.34,1.44,1.44,0,0,0-1.29-1.59Z"></path><path class="cls-1" d="M65.08,26.68H64V21.55h1Z"></path><path class="cls-1" d="M69.59,22.54H68.18v4.14H67.13V22.54H65.72v-1h3.87Z"></path><path class="cls-1" d="M73.68,26.68H70V21.55h3.69v1H71v1.08h2.53v1H71v1.15h2.64Z"></path><path class="cls-1" d="M74.53,26.68V21.55h1.84a2.57,2.57,0,1,1,.32,5.13,1.71,1.71,0,0,1-.32,0Zm1.81-4.16h-.76v3.19h.76A1.45,1.45,0,0,0,78,24.5a1.7,1.7,0,0,0,0-.39,1.45,1.45,0,0,0-1.28-1.6A1.6,1.6,0,0,0,76.34,22.52Z"></path><polygon class="cls-2" points="18.3 8.7 18.3 17.4 27 26.1 27 8.7 18.3 8.7"></polygon><polygon class="cls-3" points="18.3 0 0.9 0 9.6 8.7 18.3 8.7 18.3 0"></polygon><rect class="cls-1" x="18.3" width="8.7" height="8.7"></rect><polygon class="cls-2" points="8.7 18.3 8.7 9.6 0 0.9 0 18.3 8.7 18.3"></polygon><polygon class="cls-3" points="8.7 27 26.1 27 17.4 18.3 8.7 18.3 8.7 27"></polygon><rect class="cls-1" y="18.3" width="8.7" height="8.7"></rect><path class="cls-1" d="M32,19.41,36,8.66h2.33l4,10.75H40l-.65-1.85H35l-.65,1.85Zm5.16-8L35.68,15.6h3L37.2,11.41Z"></path><path class="cls-1" d="M41.93,19.41l4-10.75h2.33l4,10.75H50l-.65-1.85H44.9l-.65,1.85Zm5.16-8L45.61,15.6h3l-1.48-4.19Z"></path><path class="cls-1" d="M68.62,16.41c0-2.12-5.75-.45-5.75-4.66,0-1.82,1.44-3.31,3.92-3.31a3.7,3.7,0,0,1,4,3.37c0,.07,0,.15,0,.22H68.62a1.68,1.68,0,0,0-1.73-1.63h-.13c-1,0-1.71.51-1.71,1.21,0,2.15,5.81.45,5.81,4.72,0,1.92-1.7,3.28-4.25,3.28-3,0-4.09-1.85-4.15-3.62h2.18c.06.88.7,1.65,2.09,1.65C67.91,17.65,68.62,17.2,68.62,16.41Z"></path><path class="cls-1" d="M71.59,19.41V8.66h4.54c2.47,0,3.57,1.32,3.57,3A2.48,2.48,0,0,1,78.2,14a2.46,2.46,0,0,1,1.65,2.38c0,1.85-1.2,3-3.53,3Zm2.15-8.74V13h2.38c.85,0,1.36-.39,1.36-1.17s-.39-1.17-1.36-1.17Zm0,4.3v2.45h2.53c.94,0,1.36-.47,1.36-1.23S77.2,15,76.27,15Z"></path><path class="cls-1" d="M59.73,16a2.75,2.75,0,0,1-2.63,1.5C55.1,17.5,54,16.14,54,14s1.1-3.48,3.07-3.48A2.71,2.71,0,0,1,60,12.64H62.3a5,5,0,0,0-5.21-4.21,5.27,5.27,0,0,0-5.4,5.14c0,.14,0,.29,0,.43a5.26,5.26,0,0,0,4.95,5.57h.45A5,5,0,0,0,62.17,16Z"></path></g></g></svg> 